<?xml version="1.0" encoding="UTF-8" standalone="no"?>
<svg
    width="148"
    height="148"
    viewBox="0 0 148 148"
    preserveAspectRatio="none"
    version="1.1"
    xmlns="http://www.w3.org/2000/svg">
    <rect
        x="0"
        y="0"
        width="148"
        height="148"
        fill="#ffffff" />
    <path
        d="M 16 16 L 16 20 L 16 24 L 16 28 L 16 32 L 16 36 L 16 40 L 16 44 L 20 44 L 24 44 L 28 44 L 32 44 L 36 44 L 40 44 L 44 44 L 44 40 L 44 36 L 44 32 L 44 28 L 44 24 L 44 20 L 44 16 L 40 16 L 36 16 L 32 16 L 28 16 L 24 16 L 20 16 L 16 16 z M 52 16 L 52 20 L 48 20 L 48 24 L 52 24 L 52 28 L 48 28 L 48 32 L 52 32 L 56 32 L 56 28 L 60 28 L 60 32 L 64 32 L 64 36 L 64 40 L 64 44 L 64 48 L 68 48 L 68 44 L 68 40 L 72 40 L 72 44 L 72 48 L 68 48 L 68 52 L 72 52 L 76 52 L 76 48 L 76 44 L 76 40 L 80 40 L 80 36 L 76 36 L 76 32 L 80 32 L 80 36 L 84 36 L 84 40 L 88 40 L 88 36 L 92 36 L 96 36 L 100 36 L 100 32 L 100 28 L 96 28 L 96 32 L 92 32 L 88 32 L 88 28 L 84 28 L 80 28 L 76 28 L 76 24 L 80 24 L 84 24 L 88 24 L 88 20 L 92 20 L 96 20 L 96 16 L 92 16 L 88 16 L 84 16 L 84 20 L 80 20 L 76 20 L 72 20 L 72 16 L 68 16 L 68 20 L 64 20 L 60 20 L 60 24 L 56 24 L 56 20 L 56 16 L 52 16 z M 96 20 L 96 24 L 100 24 L 100 20 L 96 20 z M 96 24 L 92 24 L 88 24 L 88 28 L 92 28 L 96 28 L 96 24 z M 88 40 L 88 44 L 92 44 L 92 40 L 88 40 z M 84 40 L 80 40 L 80 44 L 80 48 L 84 48 L 84 44 L 84 40 z M 84 48 L 84 52 L 88 52 L 88 48 L 84 48 z M 84 52 L 80 52 L 80 56 L 76 56 L 76 60 L 80 60 L 80 64 L 84 64 L 84 60 L 88 60 L 88 64 L 92 64 L 92 60 L 92 56 L 88 56 L 84 56 L 84 52 z M 92 56 L 96 56 L 96 60 L 100 60 L 100 56 L 104 56 L 104 60 L 108 60 L 108 56 L 112 56 L 116 56 L 116 52 L 112 52 L 112 48 L 108 48 L 108 52 L 104 52 L 104 48 L 100 48 L 100 52 L 96 52 L 96 48 L 92 48 L 92 52 L 92 56 z M 96 48 L 100 48 L 100 44 L 100 40 L 96 40 L 96 44 L 96 48 z M 116 52 L 120 52 L 120 48 L 116 48 L 116 52 z M 104 60 L 100 60 L 100 64 L 104 64 L 104 60 z M 92 64 L 92 68 L 88 68 L 88 72 L 92 72 L 96 72 L 96 76 L 100 76 L 100 72 L 104 72 L 104 76 L 104 80 L 108 80 L 112 80 L 116 80 L 116 76 L 120 76 L 124 76 L 124 72 L 120 72 L 116 72 L 116 68 L 112 68 L 112 64 L 108 64 L 108 68 L 104 68 L 100 68 L 96 68 L 96 64 L 92 64 z M 112 64 L 116 64 L 116 68 L 120 68 L 124 68 L 124 64 L 120 64 L 120 60 L 116 60 L 112 60 L 112 64 z M 124 64 L 128 64 L 128 60 L 124 60 L 124 64 z M 124 76 L 124 80 L 128 80 L 128 76 L 124 76 z M 124 80 L 120 80 L 116 80 L 116 84 L 120 84 L 120 88 L 120 92 L 124 92 L 124 88 L 124 84 L 124 80 z M 124 92 L 124 96 L 120 96 L 120 100 L 116 100 L 116 96 L 116 92 L 112 92 L 112 96 L 108 96 L 104 96 L 100 96 L 96 96 L 96 100 L 92 100 L 88 100 L 88 96 L 84 96 L 84 92 L 80 92 L 80 88 L 76 88 L 76 92 L 72 92 L 72 96 L 68 96 L 68 100 L 72 100 L 76 100 L 80 100 L 80 104 L 76 104 L 72 104 L 72 108 L 72 112 L 68 112 L 64 112 L 60 112 L 60 108 L 60 104 L 56 104 L 56 108 L 52 108 L 52 112 L 56 112 L 56 116 L 60 116 L 60 120 L 64 120 L 68 120 L 68 116 L 72 116 L 72 120 L 76 120 L 76 116 L 80 116 L 80 112 L 80 108 L 84 108 L 84 104 L 88 104 L 92 104 L 92 108 L 88 108 L 88 112 L 92 112 L 96 112 L 96 116 L 100 116 L 104 116 L 108 116 L 112 116 L 116 116 L 116 112 L 116 108 L 120 108 L 124 108 L 124 104 L 128 104 L 132 104 L 132 100 L 132 96 L 128 96 L 128 92 L 124 92 z M 116 116 L 116 120 L 112 120 L 108 120 L 104 120 L 104 124 L 108 124 L 108 128 L 112 128 L 112 132 L 116 132 L 116 128 L 120 128 L 120 124 L 124 124 L 124 128 L 128 128 L 128 124 L 128 120 L 124 120 L 124 116 L 128 116 L 128 112 L 124 112 L 120 112 L 120 116 L 116 116 z M 128 116 L 128 120 L 132 120 L 132 116 L 128 116 z M 124 128 L 120 128 L 120 132 L 124 132 L 124 128 z M 108 128 L 104 128 L 104 124 L 100 124 L 96 124 L 96 120 L 92 120 L 92 124 L 92 128 L 92 132 L 96 132 L 96 128 L 100 128 L 100 132 L 104 132 L 108 132 L 108 128 z M 92 120 L 92 116 L 88 116 L 88 112 L 84 112 L 84 116 L 80 116 L 80 120 L 76 120 L 76 124 L 80 124 L 84 124 L 88 124 L 88 120 L 92 120 z M 72 120 L 68 120 L 68 124 L 72 124 L 72 120 z M 68 124 L 64 124 L 60 124 L 60 128 L 64 128 L 68 128 L 68 124 z M 68 128 L 68 132 L 72 132 L 76 132 L 80 132 L 80 128 L 76 128 L 72 128 L 68 128 z M 56 116 L 52 116 L 52 112 L 48 112 L 48 116 L 48 120 L 48 124 L 48 128 L 48 132 L 52 132 L 52 128 L 56 128 L 56 124 L 52 124 L 52 120 L 56 120 L 56 116 z M 52 108 L 52 104 L 56 104 L 56 100 L 52 100 L 52 96 L 48 96 L 48 100 L 48 104 L 48 108 L 52 108 z M 52 96 L 56 96 L 56 92 L 52 92 L 52 96 z M 56 96 L 56 100 L 60 100 L 60 96 L 56 96 z M 60 96 L 64 96 L 68 96 L 68 92 L 64 92 L 60 92 L 60 96 z M 68 92 L 72 92 L 72 88 L 72 84 L 76 84 L 76 80 L 72 80 L 68 80 L 68 76 L 68 72 L 64 72 L 64 76 L 64 80 L 60 80 L 60 84 L 60 88 L 64 88 L 64 84 L 68 84 L 68 88 L 68 92 z M 60 80 L 60 76 L 60 72 L 64 72 L 64 68 L 68 68 L 68 72 L 72 72 L 72 68 L 76 68 L 76 64 L 76 60 L 72 60 L 72 64 L 68 64 L 64 64 L 64 60 L 60 60 L 56 60 L 56 56 L 56 52 L 60 52 L 60 48 L 56 48 L 52 48 L 48 48 L 44 48 L 40 48 L 40 52 L 44 52 L 44 56 L 48 56 L 48 52 L 52 52 L 52 56 L 52 60 L 48 60 L 48 64 L 52 64 L 52 68 L 52 72 L 56 72 L 56 76 L 52 76 L 48 76 L 44 76 L 44 80 L 40 80 L 40 76 L 44 76 L 44 72 L 40 72 L 36 72 L 36 68 L 40 68 L 44 68 L 48 68 L 48 64 L 44 64 L 40 64 L 40 60 L 44 60 L 44 56 L 40 56 L 36 56 L 36 60 L 32 60 L 32 64 L 32 68 L 28 68 L 28 72 L 32 72 L 32 76 L 32 80 L 36 80 L 36 84 L 40 84 L 44 84 L 44 88 L 40 88 L 36 88 L 32 88 L 32 92 L 28 92 L 24 92 L 24 96 L 24 100 L 28 100 L 32 100 L 36 100 L 36 96 L 40 96 L 40 92 L 44 92 L 48 92 L 48 88 L 52 88 L 56 88 L 56 84 L 52 84 L 52 80 L 56 80 L 60 80 z M 40 96 L 40 100 L 44 100 L 44 96 L 40 96 z M 28 72 L 24 72 L 24 68 L 28 68 L 28 64 L 24 64 L 20 64 L 20 60 L 16 60 L 16 64 L 16 68 L 16 72 L 20 72 L 20 76 L 16 76 L 16 80 L 20 80 L 24 80 L 28 80 L 28 76 L 28 72 z M 60 52 L 60 56 L 64 56 L 64 52 L 60 52 z M 72 72 L 72 76 L 76 76 L 76 80 L 80 80 L 80 76 L 84 76 L 88 76 L 88 72 L 84 72 L 84 68 L 80 68 L 80 72 L 76 72 L 72 72 z M 84 68 L 88 68 L 88 64 L 84 64 L 84 68 z M 60 100 L 60 104 L 64 104 L 64 100 L 60 100 z M 80 88 L 84 88 L 84 92 L 88 92 L 88 88 L 92 88 L 96 88 L 100 88 L 100 84 L 96 84 L 92 84 L 92 80 L 88 80 L 84 80 L 84 84 L 80 84 L 80 88 z M 96 96 L 96 92 L 92 92 L 92 96 L 96 96 z M 116 84 L 112 84 L 108 84 L 104 84 L 104 88 L 108 88 L 112 88 L 116 88 L 116 84 z M 60 32 L 56 32 L 56 36 L 56 40 L 56 44 L 60 44 L 60 40 L 60 36 L 60 32 z M 104 16 L 104 20 L 104 24 L 104 28 L 104 32 L 104 36 L 104 40 L 104 44 L 108 44 L 112 44 L 116 44 L 120 44 L 124 44 L 128 44 L 132 44 L 132 40 L 132 36 L 132 32 L 132 28 L 132 24 L 132 20 L 132 16 L 128 16 L 124 16 L 120 16 L 116 16 L 112 16 L 108 16 L 104 16 z M 20 20 L 24 20 L 28 20 L 32 20 L 36 20 L 40 20 L 40 24 L 40 28 L 40 32 L 40 36 L 40 40 L 36 40 L 32 40 L 28 40 L 24 40 L 20 40 L 20 36 L 20 32 L 20 28 L 20 24 L 20 20 z M 108 20 L 112 20 L 116 20 L 120 20 L 124 20 L 128 20 L 128 24 L 128 28 L 128 32 L 128 36 L 128 40 L 124 40 L 120 40 L 116 40 L 112 40 L 108 40 L 108 36 L 108 32 L 108 28 L 108 24 L 108 20 z M 24 24 L 24 28 L 24 32 L 24 36 L 28 36 L 32 36 L 36 36 L 36 32 L 36 28 L 36 24 L 32 24 L 28 24 L 24 24 z M 64 24 L 68 24 L 72 24 L 72 28 L 68 28 L 64 28 L 64 24 z M 112 24 L 112 28 L 112 32 L 112 36 L 116 36 L 120 36 L 124 36 L 124 32 L 124 28 L 124 24 L 120 24 L 116 24 L 112 24 z M 68 32 L 72 32 L 72 36 L 68 36 L 68 32 z M 48 36 L 48 40 L 48 44 L 52 44 L 52 40 L 52 36 L 48 36 z M 16 48 L 16 52 L 20 52 L 24 52 L 28 52 L 32 52 L 36 52 L 36 48 L 32 48 L 28 48 L 24 48 L 20 48 L 16 48 z M 124 48 L 124 52 L 128 52 L 128 48 L 124 48 z M 128 52 L 128 56 L 132 56 L 132 52 L 128 52 z M 24 56 L 24 60 L 28 60 L 28 56 L 24 56 z M 56 64 L 60 64 L 60 68 L 56 68 L 56 64 z M 128 68 L 128 72 L 132 72 L 132 68 L 128 68 z M 16 84 L 16 88 L 16 92 L 16 96 L 16 100 L 20 100 L 20 96 L 20 92 L 20 88 L 24 88 L 28 88 L 28 84 L 24 84 L 20 84 L 16 84 z M 128 84 L 128 88 L 132 88 L 132 84 L 128 84 z M 100 100 L 104 100 L 108 100 L 112 100 L 112 104 L 112 108 L 112 112 L 108 112 L 104 112 L 100 112 L 100 108 L 100 104 L 100 100 z M 16 104 L 16 108 L 16 112 L 16 116 L 16 120 L 16 124 L 16 128 L 16 132 L 20 132 L 24 132 L 28 132 L 32 132 L 36 132 L 40 132 L 44 132 L 44 128 L 44 124 L 44 120 L 44 116 L 44 112 L 44 108 L 44 104 L 40 104 L 36 104 L 32 104 L 28 104 L 24 104 L 20 104 L 16 104 z M 104 104 L 104 108 L 108 108 L 108 104 L 104 104 z M 20 108 L 24 108 L 28 108 L 32 108 L 36 108 L 40 108 L 40 112 L 40 116 L 40 120 L 40 124 L 40 128 L 36 128 L 32 128 L 28 128 L 24 128 L 20 128 L 20 124 L 20 120 L 20 116 L 20 112 L 20 108 z M 24 112 L 24 116 L 24 120 L 24 124 L 28 124 L 32 124 L 36 124 L 36 120 L 36 116 L 36 112 L 32 112 L 28 112 L 24 112 z M 84 128 L 84 132 L 88 132 L 88 128 L 84 128 z" />
</svg>
