<?xml version="1.0" encoding="UTF-8" standalone="no"?>
<svg
    width="164"
    height="164"
    viewBox="0 0 164 164"
    preserveAspectRatio="none"
    version="1.1"
    xmlns="http://www.w3.org/2000/svg">
    <rect
        x="0"
        y="0"
        width="164"
        height="164"
        fill="#ffffff" />
    <path
        d="M 16 16 L 16 20 L 16 24 L 16 28 L 16 32 L 16 36 L 16 40 L 16 44 L 20 44 L 24 44 L 28 44 L 32 44 L 36 44 L 40 44 L 44 44 L 44 40 L 44 36 L 44 32 L 44 28 L 44 24 L 44 20 L 44 16 L 40 16 L 36 16 L 32 16 L 28 16 L 24 16 L 20 16 L 16 16 z M 52 16 L 52 20 L 48 20 L 48 24 L 52 24 L 52 28 L 48 28 L 48 32 L 52 32 L 56 32 L 56 28 L 60 28 L 60 32 L 64 32 L 64 28 L 64 24 L 68 24 L 68 20 L 64 20 L 60 20 L 60 24 L 56 24 L 56 20 L 56 16 L 52 16 z M 64 32 L 64 36 L 68 36 L 68 40 L 72 40 L 72 44 L 76 44 L 76 40 L 80 40 L 80 44 L 76 44 L 76 48 L 72 48 L 72 52 L 76 52 L 80 52 L 80 48 L 84 48 L 84 44 L 84 40 L 84 36 L 80 36 L 80 32 L 76 32 L 72 32 L 68 32 L 64 32 z M 84 36 L 88 36 L 92 36 L 96 36 L 96 32 L 96 28 L 92 28 L 92 32 L 88 32 L 88 28 L 84 28 L 84 32 L 84 36 z M 84 28 L 84 24 L 80 24 L 80 28 L 84 28 z M 84 24 L 88 24 L 88 20 L 84 20 L 84 24 z M 84 20 L 84 16 L 80 16 L 76 16 L 76 20 L 80 20 L 84 20 z M 88 20 L 92 20 L 96 20 L 96 24 L 96 28 L 100 28 L 104 28 L 104 24 L 108 24 L 108 20 L 104 20 L 100 20 L 100 16 L 96 16 L 92 16 L 88 16 L 88 20 z M 108 20 L 112 20 L 112 16 L 108 16 L 108 20 z M 108 24 L 108 28 L 104 28 L 104 32 L 108 32 L 108 36 L 112 36 L 116 36 L 116 32 L 116 28 L 112 28 L 112 24 L 108 24 z M 108 36 L 104 36 L 104 40 L 104 44 L 100 44 L 100 48 L 104 48 L 104 52 L 108 52 L 108 48 L 112 48 L 112 44 L 108 44 L 108 40 L 108 36 z M 112 44 L 116 44 L 116 40 L 112 40 L 112 44 z M 112 48 L 112 52 L 116 52 L 116 56 L 120 56 L 124 56 L 124 52 L 120 52 L 120 48 L 116 48 L 112 48 z M 124 52 L 128 52 L 128 48 L 124 48 L 124 52 z M 116 56 L 112 56 L 112 60 L 108 60 L 104 60 L 100 60 L 100 56 L 104 56 L 104 52 L 100 52 L 100 48 L 96 48 L 96 52 L 92 52 L 88 52 L 88 56 L 92 56 L 96 56 L 96 60 L 96 64 L 100 64 L 104 64 L 104 68 L 108 68 L 108 64 L 112 64 L 116 64 L 116 60 L 116 56 z M 116 64 L 116 68 L 116 72 L 116 76 L 120 76 L 120 72 L 124 72 L 124 68 L 120 68 L 120 64 L 116 64 z M 120 64 L 124 64 L 124 60 L 120 60 L 120 64 z M 108 68 L 108 72 L 112 72 L 112 68 L 108 68 z M 104 68 L 100 68 L 96 68 L 92 68 L 88 68 L 88 64 L 84 64 L 84 68 L 80 68 L 80 72 L 76 72 L 76 68 L 72 68 L 68 68 L 64 68 L 64 72 L 68 72 L 68 76 L 64 76 L 64 80 L 64 84 L 68 84 L 68 80 L 72 80 L 72 76 L 76 76 L 76 80 L 80 80 L 80 76 L 84 76 L 84 72 L 88 72 L 92 72 L 96 72 L 96 76 L 96 80 L 100 80 L 104 80 L 104 84 L 100 84 L 96 84 L 96 80 L 92 80 L 92 84 L 88 84 L 88 80 L 84 80 L 84 84 L 80 84 L 80 88 L 84 88 L 88 88 L 88 92 L 92 92 L 92 88 L 96 88 L 96 92 L 100 92 L 100 96 L 104 96 L 104 92 L 108 92 L 108 88 L 112 88 L 112 84 L 116 84 L 116 88 L 120 88 L 124 88 L 124 84 L 120 84 L 120 80 L 116 80 L 112 80 L 112 76 L 108 76 L 104 76 L 104 72 L 104 68 z M 124 84 L 128 84 L 132 84 L 132 80 L 132 76 L 132 72 L 128 72 L 128 76 L 128 80 L 124 80 L 124 84 z M 132 84 L 132 88 L 132 92 L 136 92 L 136 88 L 136 84 L 132 84 z M 136 92 L 136 96 L 140 96 L 140 92 L 136 92 z M 140 92 L 144 92 L 144 88 L 148 88 L 148 84 L 144 84 L 144 80 L 140 80 L 140 84 L 140 88 L 140 92 z M 140 80 L 140 76 L 136 76 L 136 80 L 140 80 z M 140 76 L 144 76 L 144 72 L 148 72 L 148 68 L 144 68 L 140 68 L 140 72 L 140 76 z M 140 96 L 140 100 L 140 104 L 140 108 L 144 108 L 144 104 L 148 104 L 148 100 L 144 100 L 144 96 L 140 96 z M 140 108 L 136 108 L 136 104 L 136 100 L 132 100 L 132 104 L 128 104 L 124 104 L 124 108 L 124 112 L 120 112 L 120 108 L 116 108 L 112 108 L 108 108 L 104 108 L 104 104 L 100 104 L 100 108 L 100 112 L 104 112 L 104 116 L 108 116 L 108 112 L 112 112 L 112 116 L 108 116 L 108 120 L 104 120 L 104 124 L 100 124 L 100 120 L 100 116 L 96 116 L 96 112 L 96 108 L 92 108 L 88 108 L 88 112 L 92 112 L 92 116 L 88 116 L 88 120 L 92 120 L 96 120 L 96 124 L 92 124 L 92 128 L 92 132 L 92 136 L 96 136 L 96 132 L 96 128 L 100 128 L 104 128 L 104 132 L 108 132 L 108 128 L 112 128 L 112 132 L 112 136 L 116 136 L 120 136 L 120 132 L 124 132 L 128 132 L 128 136 L 132 136 L 132 132 L 132 128 L 136 128 L 140 128 L 140 124 L 144 124 L 144 120 L 140 120 L 140 116 L 136 116 L 136 120 L 132 120 L 132 116 L 132 112 L 128 112 L 128 108 L 132 108 L 132 112 L 136 112 L 140 112 L 140 108 z M 144 120 L 148 120 L 148 116 L 148 112 L 144 112 L 144 116 L 144 120 z M 144 124 L 144 128 L 144 132 L 140 132 L 136 132 L 136 136 L 140 136 L 144 136 L 148 136 L 148 132 L 148 128 L 148 124 L 144 124 z M 120 136 L 120 140 L 120 144 L 124 144 L 124 140 L 124 136 L 120 136 z M 120 144 L 116 144 L 112 144 L 108 144 L 104 144 L 104 148 L 108 148 L 112 148 L 116 148 L 120 148 L 120 144 z M 104 144 L 104 140 L 100 140 L 100 144 L 104 144 z M 100 144 L 96 144 L 96 148 L 100 148 L 100 144 z M 96 144 L 96 140 L 92 140 L 92 144 L 96 144 z M 92 144 L 88 144 L 84 144 L 84 148 L 88 148 L 92 148 L 92 144 z M 84 144 L 84 140 L 88 140 L 92 140 L 92 136 L 88 136 L 84 136 L 84 132 L 80 132 L 80 136 L 76 136 L 76 132 L 72 132 L 68 132 L 64 132 L 64 136 L 68 136 L 68 140 L 64 140 L 64 144 L 64 148 L 68 148 L 68 144 L 72 144 L 72 140 L 76 140 L 76 144 L 80 144 L 84 144 z M 76 144 L 72 144 L 72 148 L 76 148 L 76 144 z M 64 132 L 64 128 L 64 124 L 68 124 L 68 120 L 64 120 L 60 120 L 60 124 L 56 124 L 56 120 L 52 120 L 52 116 L 48 116 L 48 120 L 48 124 L 52 124 L 52 128 L 56 128 L 60 128 L 60 132 L 64 132 z M 52 128 L 48 128 L 48 132 L 48 136 L 48 140 L 48 144 L 48 148 L 52 148 L 52 144 L 56 144 L 56 148 L 60 148 L 60 144 L 60 140 L 60 136 L 56 136 L 56 132 L 52 132 L 52 128 z M 52 116 L 56 116 L 56 120 L 60 120 L 60 116 L 60 112 L 56 112 L 56 108 L 52 108 L 52 112 L 52 116 z M 52 108 L 52 104 L 52 100 L 52 96 L 56 96 L 56 92 L 52 92 L 48 92 L 48 96 L 44 96 L 40 96 L 40 100 L 44 100 L 44 104 L 40 104 L 40 100 L 36 100 L 32 100 L 32 104 L 36 104 L 36 108 L 32 108 L 32 104 L 28 104 L 24 104 L 24 108 L 24 112 L 24 116 L 28 116 L 32 116 L 32 112 L 36 112 L 36 116 L 40 116 L 44 116 L 44 112 L 40 112 L 40 108 L 44 108 L 48 108 L 52 108 z M 40 96 L 40 92 L 44 92 L 44 88 L 40 88 L 40 84 L 36 84 L 36 88 L 36 92 L 36 96 L 40 96 z M 36 84 L 36 80 L 40 80 L 40 76 L 36 76 L 36 72 L 36 68 L 32 68 L 32 72 L 32 76 L 32 80 L 32 84 L 36 84 z M 40 76 L 44 76 L 48 76 L 48 72 L 44 72 L 40 72 L 40 76 z M 40 80 L 40 84 L 44 84 L 44 80 L 40 80 z M 44 84 L 44 88 L 48 88 L 48 84 L 44 84 z M 84 132 L 88 132 L 88 128 L 84 128 L 84 132 z M 84 128 L 84 124 L 88 124 L 88 120 L 84 120 L 84 116 L 80 116 L 80 120 L 76 120 L 76 124 L 80 124 L 80 128 L 84 128 z M 76 124 L 72 124 L 72 128 L 76 128 L 76 124 z M 80 116 L 80 112 L 76 112 L 72 112 L 72 116 L 76 116 L 80 116 z M 72 112 L 72 108 L 76 108 L 80 108 L 80 104 L 76 104 L 76 100 L 72 100 L 68 100 L 64 100 L 64 104 L 68 104 L 68 108 L 64 108 L 64 112 L 64 116 L 68 116 L 68 112 L 72 112 z M 64 100 L 64 96 L 64 92 L 68 92 L 68 88 L 64 88 L 60 88 L 60 92 L 60 96 L 60 100 L 64 100 z M 60 100 L 56 100 L 56 104 L 60 104 L 60 100 z M 60 88 L 60 84 L 60 80 L 60 76 L 60 72 L 60 68 L 56 68 L 56 64 L 60 64 L 60 68 L 64 68 L 64 64 L 64 60 L 68 60 L 68 56 L 64 56 L 60 56 L 60 60 L 56 60 L 56 56 L 56 52 L 60 52 L 60 48 L 56 48 L 52 48 L 48 48 L 44 48 L 40 48 L 40 52 L 44 52 L 44 56 L 48 56 L 52 56 L 52 60 L 52 64 L 52 68 L 52 72 L 52 76 L 56 76 L 56 80 L 52 80 L 52 84 L 52 88 L 56 88 L 60 88 z M 44 56 L 40 56 L 36 56 L 36 60 L 32 60 L 28 60 L 28 56 L 32 56 L 36 56 L 36 52 L 36 48 L 32 48 L 28 48 L 24 48 L 20 48 L 16 48 L 16 52 L 20 52 L 24 52 L 24 56 L 20 56 L 20 60 L 24 60 L 24 64 L 20 64 L 16 64 L 16 68 L 16 72 L 16 76 L 16 80 L 20 80 L 20 84 L 24 84 L 24 88 L 20 88 L 20 84 L 16 84 L 16 88 L 16 92 L 16 96 L 16 100 L 16 104 L 16 108 L 16 112 L 16 116 L 20 116 L 20 112 L 20 108 L 20 104 L 20 100 L 24 100 L 28 100 L 28 96 L 32 96 L 32 92 L 32 88 L 28 88 L 28 84 L 28 80 L 28 76 L 24 76 L 20 76 L 20 72 L 20 68 L 24 68 L 24 72 L 28 72 L 28 68 L 28 64 L 32 64 L 36 64 L 40 64 L 40 60 L 44 60 L 44 56 z M 40 64 L 40 68 L 44 68 L 48 68 L 48 64 L 44 64 L 40 64 z M 76 100 L 80 100 L 80 96 L 76 96 L 76 100 z M 76 96 L 76 92 L 72 92 L 72 96 L 76 96 z M 76 92 L 80 92 L 80 88 L 76 88 L 76 92 z M 80 92 L 80 96 L 84 96 L 84 92 L 80 92 z M 84 96 L 84 100 L 80 100 L 80 104 L 84 104 L 84 108 L 88 108 L 88 104 L 92 104 L 96 104 L 100 104 L 100 100 L 96 100 L 92 100 L 88 100 L 88 96 L 84 96 z M 84 108 L 80 108 L 80 112 L 84 112 L 84 108 z M 84 112 L 84 116 L 88 116 L 88 112 L 84 112 z M 96 140 L 100 140 L 100 136 L 96 136 L 96 140 z M 104 140 L 108 140 L 112 140 L 112 136 L 108 136 L 104 136 L 104 140 z M 124 104 L 124 100 L 120 100 L 120 104 L 124 104 z M 120 100 L 120 96 L 116 96 L 112 96 L 112 92 L 108 92 L 108 96 L 104 96 L 104 100 L 108 100 L 108 104 L 112 104 L 116 104 L 116 100 L 120 100 z M 112 92 L 116 92 L 116 88 L 112 88 L 112 92 z M 120 96 L 124 96 L 124 92 L 120 92 L 120 96 z M 124 92 L 128 92 L 128 88 L 124 88 L 124 92 z M 128 92 L 128 96 L 124 96 L 124 100 L 128 100 L 132 100 L 132 96 L 132 92 L 128 92 z M 76 80 L 72 80 L 72 84 L 76 84 L 76 80 z M 76 68 L 80 68 L 80 64 L 76 64 L 76 68 z M 76 64 L 76 60 L 72 60 L 72 64 L 76 64 z M 76 60 L 80 60 L 84 60 L 84 56 L 84 52 L 80 52 L 80 56 L 76 56 L 76 60 z M 84 52 L 88 52 L 88 48 L 84 48 L 84 52 z M 88 48 L 92 48 L 96 48 L 96 44 L 92 44 L 92 40 L 88 40 L 88 44 L 88 48 z M 96 44 L 100 44 L 100 40 L 100 36 L 96 36 L 96 40 L 96 44 z M 112 56 L 112 52 L 108 52 L 108 56 L 112 56 z M 88 24 L 88 28 L 92 28 L 92 24 L 88 24 z M 72 48 L 72 44 L 68 44 L 68 40 L 64 40 L 64 44 L 64 48 L 64 52 L 68 52 L 68 48 L 72 48 z M 60 32 L 56 32 L 56 36 L 56 40 L 56 44 L 60 44 L 60 40 L 60 36 L 60 32 z M 120 16 L 120 20 L 120 24 L 120 28 L 120 32 L 120 36 L 120 40 L 120 44 L 124 44 L 128 44 L 132 44 L 136 44 L 140 44 L 144 44 L 148 44 L 148 40 L 148 36 L 148 32 L 148 28 L 148 24 L 148 20 L 148 16 L 144 16 L 140 16 L 136 16 L 132 16 L 128 16 L 124 16 L 120 16 z M 20 20 L 24 20 L 28 20 L 32 20 L 36 20 L 40 20 L 40 24 L 40 28 L 40 32 L 40 36 L 40 40 L 36 40 L 32 40 L 28 40 L 24 40 L 20 40 L 20 36 L 20 32 L 20 28 L 20 24 L 20 20 z M 124 20 L 128 20 L 132 20 L 136 20 L 140 20 L 144 20 L 144 24 L 144 28 L 144 32 L 144 36 L 144 40 L 140 40 L 136 40 L 132 40 L 128 40 L 124 40 L 124 36 L 124 32 L 124 28 L 124 24 L 124 20 z M 24 24 L 24 28 L 24 32 L 24 36 L 28 36 L 32 36 L 36 36 L 36 32 L 36 28 L 36 24 L 32 24 L 28 24 L 24 24 z M 72 24 L 72 28 L 76 28 L 76 24 L 72 24 z M 128 24 L 128 28 L 128 32 L 128 36 L 132 36 L 136 36 L 140 36 L 140 32 L 140 28 L 140 24 L 136 24 L 132 24 L 128 24 z M 48 36 L 48 40 L 48 44 L 52 44 L 52 40 L 52 36 L 48 36 z M 132 48 L 132 52 L 136 52 L 136 48 L 132 48 z M 136 52 L 136 56 L 140 56 L 140 60 L 144 60 L 144 56 L 148 56 L 148 52 L 144 52 L 144 48 L 140 48 L 140 52 L 136 52 z M 140 60 L 136 60 L 136 64 L 140 64 L 140 60 z M 136 64 L 132 64 L 128 64 L 128 68 L 132 68 L 136 68 L 136 64 z M 136 60 L 136 56 L 132 56 L 132 60 L 136 60 z M 20 92 L 24 92 L 24 96 L 20 96 L 20 92 z M 116 116 L 120 116 L 124 116 L 128 116 L 128 120 L 128 124 L 128 128 L 124 128 L 120 128 L 116 128 L 116 124 L 116 120 L 116 116 z M 16 120 L 16 124 L 16 128 L 16 132 L 16 136 L 16 140 L 16 144 L 16 148 L 20 148 L 24 148 L 28 148 L 32 148 L 36 148 L 40 148 L 44 148 L 44 144 L 44 140 L 44 136 L 44 132 L 44 128 L 44 124 L 44 120 L 40 120 L 36 120 L 32 120 L 28 120 L 24 120 L 20 120 L 16 120 z M 120 120 L 120 124 L 124 124 L 124 120 L 120 120 z M 20 124 L 24 124 L 28 124 L 32 124 L 36 124 L 40 124 L 40 128 L 40 132 L 40 136 L 40 140 L 40 144 L 36 144 L 32 144 L 28 144 L 24 144 L 20 144 L 20 140 L 20 136 L 20 132 L 20 128 L 20 124 z M 24 128 L 24 132 L 24 136 L 24 140 L 28 140 L 32 140 L 36 140 L 36 136 L 36 132 L 36 128 L 32 128 L 28 128 L 24 128 z M 132 140 L 132 144 L 136 144 L 140 144 L 140 140 L 136 140 L 132 140 z M 140 144 L 140 148 L 144 148 L 144 144 L 140 144 z" />
</svg>
