<svg width="256" height="256" version="1.1" viewBox="0 0 256 256" xml:space="preserve" xmlns="http://www.w3.org/2000/svg">
  <path d="m70.298 48.491-17.334 41.364c-1.4468 3.1518-2.1671 5.3869-2.1671 6.6977 0 1.9693 2.4284 2.9539 7.2896 2.9539h24.817c3.9401 0 5.9093-0.78832 5.9093-2.3635 0-0.65541-0.72338-2.8225-2.1656-6.4999zm17.136 105.77v-5.9094c1.8379-0.26128 3.7739-0.52253 5.8112-0.78833 2.0342-0.26125 3.8721-0.59047 5.5152-0.98463 1.6401-0.39417 3.0189-0.88648 4.1349-1.477 1.116-0.59047 1.6763-1.2806 1.6763-2.069-0.13289-0.52253-0.23106-1.2791-0.296-2.2653-0.068-0.98314-0.42888-2.1973-1.0828-3.6426l-8.8648-24.228c-1.4452-3.413-5.4502-5.1211-12.015-5.1211h-29.349c-4.9911 0-8.0115 1.699-9.0611 5.0969l-6.6961 20.383c-0.52706 1.1764-0.78832 2.8754-0.78832 5.0969 0 6.0106 5.778 9.0143 17.334 9.0143v6.894h-44.318v-6.894c3.8057-0.26127 7.0571-1.5721 9.7497-3.9325 2.6896-2.3574 4.9549-5.7689 6.7943-10.227l47.275-112.49 5.9078 2.3649 46.683 117c1.8364 2.7576 3.2801 4.4656 4.3312 5.1226 0.26277 0.26429 1.3456 0.62373 3.2514 1.0828 1.9028 0.4606 4.5608 1.1508 7.9768 2.0675v5.9094z" fill="#ffffff" />
  <path d="m130.48 181.63v-5.9094c14.051 0 21.076-6.0377 21.076-18.121v-90.805c0-4.8568-3.2197-7.2882-9.6516-7.2882-8.6669 0-15.692 2.7923-21.075 8.3725-5.3868 5.5832-9.3903 14.018-12.015 25.309l-6.1057-1.5751 5.3174-41.955c3.0188 0.39417 5.8746 0.72338 8.5673 0.98465 2.6896 0.26428 5.2856 0.39416 7.782 0.39416h75.832c2.7576 0 5.5801-0.12987 8.4691-0.39416 2.8875-0.26127 5.8414-0.59048 8.8633-0.98465v41.168l-5.3174 0.78681c-1.5691-21.008-12.024-31.516-31.365-31.516-6.5361 0-9.8026 2.2351-9.8026 6.6977v90.805c0 12.083 7.0918 18.121 21.274 18.121v5.9094z" fill="#ffffff" />
  <path d="m249.43 128c0 67.062-54.364 121.43-121.42 121.43-67.061 0-121.43-54.364-121.43-121.43 0-67.062 54.365-121.43 121.43-121.43 67.061 0 121.42 54.364 121.42 121.43z" fill="none" stroke="#ffffff" stroke-width="13.149" />
  <path d="m18.062 178.28c15.404-6.8925 36.491-9.6426 52.911-5.6315 17.983 4.3947 32.372 17.589 49.102 25.515 22.221 10.526 47.788 11.384 72.295 9.4206 8.7394-0.69921 17.61-1.7745 25.626-5.3204 8.0191-3.5475 15.177-9.931 17.742-18.316" fill="none" stroke="#ffffff" stroke-width="11.834" />
</svg>
